# xmcd
#
# Track frame offsets:
# 150
# 19525
# 38893
# 51926
# 72221
# 86302
# 102097
# 121816
# 134642
# 153242
# 168247
# 184243
# 201143
# 216464
# 230170
# 246923
# 262323
# 279553
# 297959
# 315222
# 332729
#
# Disc length: 4655 seconds
#
#
# Revision: 0
# Processed by: cddbd v1.5.2PL0 Copyright (c) Steve Scherf et al.
# Submitted via: FreeRIP 2.944 
#
DISCID=37122d15
DTITLE=LUIS GUSTAVO  and  LUIZ AUGUSTO - BROTO DA RAIZ
DYEAR=1900
DGENRE=SERTANEJA
TTITLE0=BROTO DA RAIZ
TTITLE1=O PIR E O GALO
TTITLE2=DITO DO PINTO
TTITLE3=NOSSA SENHORA DE APARECIDA
TTITLE4=PERERECA
TTITLE5=MARCAS DO PASSADO
TTITLE6=MENINOS SAPECAS
TTITLE7=DESENCOSTE DA CHIQUINHA
TTITLE8=DONA DA FELICIDADE
TTITLE9=MORENINHA LINDA
TTITLE10=MÃE AMOROSA
TTITLE11=SEM MOTIVOS PRA VIVER
TTITLE12=MODA DA SELARIA
TTITLE13=PAISAGEM
TTITLE14=PAPAI SEU E MEU
TTITLE15=PIR PIR CAIPIRA
TTITLE16=DE VOLTA PRO SERTÃO
TTITLE17=CABOCLA TEREZA
TTITLE18=TRISTEZA DO JECA
TTITLE19=COURO DE BOI
TTITLE20=CHITÃOZINHO E CHORORÓ
EXTD=
EXTT0=
EXTT1=
EXTT2=
EXTT3=
EXTT4=
EXTT5=
EXTT6=
EXTT7=
EXTT8=
EXTT9=
EXTT10=
EXTT11=
EXTT12=
EXTT13=
EXTT14=
EXTT15=
EXTT16=
EXTT17=
EXTT18=
EXTT19=
EXTT20=
PLAYORDER=
